<svg xmlns="http://www.w3.org/2000/svg" viewBox="0 0 650 350"><filter id="b"><feGaussianBlur stdDeviation="12" /></filter><path fill="#a18362" d="M0 0h650v347H0z"/><g filter="url(#b)" transform="translate(1.3 1.3) scale(2.53906)" fill-opacity=".5"><ellipse rx="1" ry="1" transform="rotate(-168.1 123.4 1.3) scale(18.71847 62.13463)"/><ellipse fill="#ffffef" rx="1" ry="1" transform="matrix(14.63593 -16.75782 78.88364 68.89532 50.9 126.7)"/><ellipse rx="1" ry="1" transform="rotate(113 9.2 9.7) scale(16.22497 29.82196)"/><ellipse fill="#efd8c3" rx="1" ry="1" transform="rotate(106.4 83.5 72.2) scale(30.54386 45.68942)"/><ellipse fill="#976129" rx="1" ry="1" transform="matrix(-6.6298 30.40704 -65.14071 -14.20297 188.9 83)"/><ellipse fill="#c0b9ad" cx="94" cy="24" rx="41" ry="18"/><ellipse fill="#84602c" rx="1" ry="1" transform="rotate(104.3 3 56.1) scale(23.06024 54.26956)"/><ellipse fill="#e5b38b" rx="1" ry="1" transform="matrix(-3.55126 -22.73251 56.06085 -8.7578 175.5 136)"/></g></svg>