<svg xmlns="http://www.w3.org/2000/svg" viewBox="0 0 650 350"><filter id="b"><feGaussianBlur stdDeviation="12" /></filter><path fill="#504133" d="M0 0h650v347H0z"/><g filter="url(#b)" transform="translate(1.3 1.3) scale(2.53906)" fill-opacity=".5"><ellipse fill="#fff" cx="11" cy="136" rx="19" ry="223"/><ellipse fill="#1a1104" cx="255" cy="97" rx="123" ry="123"/><path fill="#420d00" d="M2 92l-18.8-35.3L22 36l18.8 35.3z"/><path fill="#fff" d="M29.6 139.6l-43.8 4.6-5.4-51.8 43.8-4.6z"/><path fill="#d8aa5e" d="M164 59.2l24.2 40.2-22.2 13.4-24.2-40.2z"/><path fill="#fff" d="M69 29h27v16H69z"/><ellipse fill="#fff" rx="1" ry="1" transform="matrix(18.1018 13.9641 -23.48203 30.43995 0 17.3)"/><ellipse fill="#a98362" rx="1" ry="1" transform="matrix(12.79304 7.19412 -13.30773 23.66466 40 18.8)"/></g></svg>