<svg xmlns="http://www.w3.org/2000/svg" viewBox="0 0 355 216"><filter id="c"><feGaussianBlur stdDeviation="55" /></filter><path fill="#9a8b7c" d="M0 0h355v214H0z"/><g filter='url(#c)' fill-opacity='.5'><ellipse fill="#441e07" fill-opacity=".5" rx="1" ry="1" transform="matrix(134.3013 -27.32391 14.81393 72.81282 133.8 186.5)"/><ellipse fill="#dde0d9" fill-opacity=".5" rx="1" ry="1" transform="matrix(-198.08075 22.91873 -6.29777 -54.43 89.7 61.2)"/><ellipse fill-opacity=".5" rx="1" ry="1" transform="matrix(-4.83143 -25.8165 44.21107 -8.27388 163.4 138)"/><ellipse fill="#e7e5db" fill-opacity=".5" rx="1" ry="1" transform="rotate(137.9 -7.8 62.8) scale(123.58443 29.4315)"/><ellipse fill="#c9a983" fill-opacity=".5" rx="1" ry="1" transform="rotate(-100.4 193.8 -45.7) scale(74.26337 45.72118)"/><ellipse fill="#7e7066" fill-opacity=".5" rx="1" ry="1" transform="matrix(-11.02186 -19.40199 63.58223 -36.11974 90.3 128)"/><path fill="#fff5c0" fill-opacity=".5" d="M124 194l-3.8-30.2 12.4-1.5 3.7 30.3z"/><ellipse fill="#190000" fill-opacity=".5" rx="1" ry="1" transform="matrix(12.02742 -13.78157 27.2939 23.81986 3.4 198.8)"/></g></svg>