<svg xmlns="http://www.w3.org/2000/svg" viewBox="0 0 355 216"><filter id="b"><feGaussianBlur stdDeviation="12" /></filter><path fill="#837d77" d="M0 0h355v214H0z"/><g filter="url(#b)" transform="translate(.7 .7) scale(1.38672)" fill-opacity=".5"><ellipse rx="1" ry="1" transform="matrix(-2.58436 -35.66912 33.66168 -2.43891 11.6 130)"/><ellipse fill="#efffff" rx="1" ry="1" transform="matrix(30.8337 11.18058 -19.3014 53.22924 195.2 26.2)"/><ellipse fill="#f5fcf7" rx="1" ry="1" transform="matrix(13.87002 32.83494 -19.20974 8.11451 68.8 84.8)"/><ellipse fill="#0a0a0b" cx="11" cy="18" rx="37" ry="37"/><path d="M191 114l-98-13 2 38z"/><ellipse fill="#ffffec" rx="1" ry="1" transform="matrix(30.2148 5.9279 -2.5654 13.07596 210.2 125.7)"/><path fill="ivory" d="M66 71.7l106.5-9.3 1.6 17.9-106.6 9.3z"/><ellipse fill="#200000" rx="1" ry="1" transform="matrix(41.85164 18.72114 -7.16996 16.02864 200 154)"/></g></svg>