<svg xmlns="http://www.w3.org/2000/svg" viewBox="0 0 1440 1080"><filter id="c"><feGaussianBlur stdDeviation="55" /></filter><path fill="#bfc4d3" d="M0 0h1440v1080H0z"/><g filter='url(#c)' fill-opacity='.5'><ellipse fill="#38333c" fill-opacity=".5" rx="1" ry="1" transform="matrix(125.03326 251.87787 -290.122 144.01781 321.4 614)"/><ellipse fill="#fffffe" fill-opacity=".5" rx="1" ry="1" transform="matrix(-388.29062 46.98833 -172.32128 -1423.98631 1095.4 288.6)"/><ellipse fill="#92928f" fill-opacity=".5" rx="1" ry="1" transform="matrix(115.86137 -12.74727 25.9134 235.52985 1093.8 582.9)"/><path fill="#312a25" fill-opacity=".5" d="M47.8 559.7H526v151.9H48z"/><ellipse fill="#cbcae6" fill-opacity=".5" rx="1" ry="1" transform="matrix(144.0847 153.97227 -98.2223 91.9148 314.2 371.7)"/><path fill="#28334f" fill-opacity=".5" d="M475.3 744.3l114.1-445.4-41-50.3-63.4 44.1z"/><ellipse fill="#a2beff" fill-opacity=".5" rx="1" ry="1" transform="rotate(-21 337.2 -557.7) scale(565.49642 253.57647)"/><path fill="#fdffff" fill-opacity=".5" d="M1499 1082.8l28.2-556.9L464 1105.3z"/></g></svg>